<?xml version="1.0" standalone="no"?>
<!DOCTYPE svg PUBLIC "-//W3C//DTD SVG 20010904//EN"
 "http://www.w3.org/TR/2001/REC-SVG-20010904/DTD/svg10.dtd">
<svg version="1.0" xmlns="http://www.w3.org/2000/svg"
 width="512.000000pt" height="512.000000pt" viewBox="0 0 512.000000 512.000000"
 preserveAspectRatio="xMidYMid meet">

<g transform="translate(0.000000,512.000000) scale(0.100000,-0.100000)"
fill="#000000" stroke="none">
<path d="M141 5070 c-34 -41 -100 -160 -88 -160 2 0 18 22 35 49 41 63 76 93
43 36 -64 -108 -84 -136 -91 -125 -5 8 -14 -7 -24 -37 -15 -44 -16 -142 -12
-1013 2 -531 8 -1010 13 -1065 l8 -100 13 72 c6 39 12 120 12 180 0 102 11
159 24 123 18 -50 27 -131 37 -335 8 -156 16 -233 24 -242 10 -10 15 0 24 45
7 31 18 71 25 87 11 27 12 22 8 -52 -3 -61 1 -103 16 -165 45 -187 77 -526 76
-807 0 -118 3 -205 7 -195 4 10 8 46 8 79 1 68 10 107 21 100 4 -3 12 3 16 13
6 13 16 592 14 861 0 41 10 17 36 -84 13 -53 31 -109 39 -125 8 -16 31 -87 49
-157 43 -159 102 -336 127 -383 16 -27 19 -29 14 -10 -3 14 -18 79 -34 145
-34 143 -45 209 -32 201 29 -18 154 -261 175 -340 18 -70 26 -81 27 -35 0 30
2 32 12 15 7 -10 44 -66 84 -125 108 -158 121 -181 173 -304 26 -61 69 -161
94 -220 51 -119 107 -288 126 -382 16 -84 47 -187 81 -274 20 -48 26 -77 20
-85 -15 -18 -52 -118 -46 -124 3 -3 20 12 39 34 25 29 36 35 40 24 2 -8 16
-54 31 -102 17 -59 31 -88 40 -88 11 0 15 14 15 58 1 31 9 95 19 142 l18 85 8
-50 c8 -61 41 -165 59 -190 13 -18 14 -18 20 3 11 32 30 27 52 -13 l19 -35
281 0 282 0 -9 27 c-59 181 -106 322 -147 438 -27 77 -52 153 -56 170 l-7 29
28 -27 c42 -41 102 -89 158 -127 28 -19 52 -36 55 -40 3 -3 30 -22 60 -43 30
-20 65 -44 78 -53 12 -9 25 -14 28 -12 3 3 -39 45 -93 94 -53 49 -120 110
-148 136 l-50 48 60 57 c33 31 59 61 57 66 -1 4 2 6 7 2 6 -3 25 2 43 11 30
15 31 18 13 24 -17 7 -16 8 10 11 22 3 31 10 33 27 2 14 10 22 24 22 17 0 18
3 8 14 -6 8 -21 17 -33 19 -13 2 -5 5 18 6 22 2 34 5 28 8 -24 9 -13 20 26 27
22 3 41 11 43 17 2 7 22 12 43 13 25 1 39 6 38 13 -2 7 3 10 10 8 16 -6 51 21
43 33 -4 6 3 8 16 4 13 -3 19 -1 15 5 -4 6 19 35 51 66 129 125 252 253 252
262 0 13 116 125 130 125 5 0 10 5 10 11 0 6 7 9 14 6 10 -4 13 -1 10 7 -3 7
3 19 12 27 11 9 15 9 10 2 -4 -7 -2 -21 4 -30 11 -17 11 -17 6 -1 -3 10 -1 18
4 18 6 0 10 -8 11 -17 0 -16 2 -15 10 2 9 20 5 -16 -8 -72 -3 -13 -2 -23 1
-23 10 0 38 69 46 110 5 29 9 16 20 -70 27 -210 18 -278 -79 -587 -28 -89 -51
-165 -51 -169 0 -22 138 201 194 313 20 40 38 73 40 73 9 0 -27 -127 -59 -209
-14 -36 -23 -66 -21 -68 2 -3 26 29 53 69 28 40 61 89 74 109 l25 36 27 -188
c15 -103 31 -233 34 -288 3 -55 10 -98 14 -95 5 3 9 58 9 122 0 114 11 339 29
594 6 101 13 134 29 159 l20 33 17 -58 c10 -32 21 -54 26 -49 4 4 9 46 11 92
l3 84 29 -41 c31 -46 52 -55 40 -19 -14 46 -13 51 4 15 21 -47 34 -48 51 -2
20 57 32 29 52 -123 10 -76 29 -188 43 -250 14 -61 26 -129 26 -150 0 -30 3
-35 11 -23 8 12 10 9 6 -12 -2 -15 -1 -25 3 -23 12 8 30 -81 40 -194 10 -124
25 -351 24 -367 -17 -216 -16 -234 5 -234 21 0 22 2 18 187 -1 104 0 170 4
148 12 -73 9 -2 -6 150 -21 211 -17 239 12 100 27 -131 33 -277 18 -478 l-8
-107 577 0 576 0 0 298 0 297 -43 50 c-24 28 -60 74 -80 104 -20 29 -37 49
-37 43 0 -15 -129 -126 -138 -118 -4 4 1 12 11 17 23 13 22 20 -14 77 -27 44
-29 52 -17 71 11 19 10 24 -8 39 -12 9 -29 33 -39 52 -9 19 -30 60 -45 90 -29
58 -50 128 -30 100 6 -8 25 -42 42 -75 16 -33 37 -67 45 -76 8 -9 18 -30 24
-45 l9 -29 -5 30 c-3 17 -8 62 -11 100 -6 61 -11 75 -39 105 -18 19 -38 45
-44 57 -14 27 -15 66 -1 58 19 -12 10 7 -22 48 -18 23 -27 38 -20 34 26 -17
10 13 -32 59 -25 27 -47 56 -49 66 -3 9 17 -6 43 -35 26 -29 51 -49 55 -45 4
4 2 27 -4 52 -15 61 -14 127 3 178 16 46 31 169 42 338 l7 105 18 -70 c10 -38
28 -149 40 -245 11 -96 25 -179 29 -183 4 -5 6 2 4 15 -8 47 -9 476 -1 465 5
-7 6 17 3 53 l-6 65 20 -53 c10 -30 25 -80 31 -113 6 -32 15 -59 19 -59 5 0
20 -21 36 -47 53 -93 152 -238 178 -262 l26 -24 0 37 c0 21 -8 50 -18 64 -60
86 -127 300 -162 512 -30 188 -24 248 13 125 9 -27 16 -40 16 -28 2 49 -41
227 -86 361 -16 49 27 -30 47 -86 13 -34 25 -60 27 -58 3 2 -2 39 -11 81 -9
43 -16 79 -16 81 0 6 60 -28 130 -72 l55 -35 3 86 c3 84 2 87 -31 133 -47 66
-56 81 -34 64 35 -29 36 0 2 51 -19 28 -35 64 -35 79 0 28 -15 47 -22 26 -3
-7 -7 -5 -11 6 -4 10 -3 15 3 11 17 -10 11 114 -10 240 -11 64 -20 133 -20
153 0 34 5 28 48 -63 79 -166 73 -155 66 -115 -7 39 -69 239 -89 285 -7 17
-16 39 -21 50 -4 11 -9 67 -10 125 -2 108 -33 322 -61 420 -9 30 -28 84 -44
119 -16 35 -29 67 -29 70 2 24 92 -143 131 -242 12 -29 32 -97 45 -152 22 -96
23 -97 17 -35 -16 180 -116 408 -247 564 l-41 50 0 175 c0 160 -2 182 -24 244
-13 37 -32 72 -41 77 -10 5 -35 36 -56 70 l-39 60 -74 0 c-68 0 -73 -1 -60
-17 8 -10 30 -38 50 -63 37 -47 72 -100 66 -100 -2 0 -24 26 -49 58 -77 97
-105 122 -137 122 -6 0 17 -54 50 -121 33 -67 57 -124 54 -128 -4 -3 -55 45
-114 107 -58 62 -119 119 -135 127 -18 10 -57 15 -107 15 -94 0 -95 -1 -43
-99 57 -110 28 -123 -71 -31 -35 33 -67 60 -70 60 -8 0 42 -77 92 -142 24 -32
40 -58 34 -58 -22 0 -196 126 -270 196 l-79 74 -101 0 -100 0 40 -37 c44 -43
134 -167 207 -289 63 -104 167 -320 187 -386 14 -47 21 -144 8 -108 -3 8 -15
26 -28 40 -12 14 -48 68 -80 120 -32 52 -66 107 -76 122 -11 15 -19 32 -19 38
0 5 -7 10 -15 10 -8 0 -14 3 -13 8 1 9 -32 85 -41 92 -3 3 -12 16 -20 30 -8
14 -27 45 -41 70 -91 152 -111 192 -122 238 l-13 52 -1250 0 -1250 0 -70 -41
c-105 -61 -198 -143 -217 -192 -7 -15 -4 -17 12 -12 25 8 25 4 0 -45 -11 -22
-19 -40 -18 -40 2 0 43 38 91 85 49 46 96 84 105 83 27 -3 112 14 118 23 3 5
14 9 25 9 24 0 26 -42 3 -96 -9 -22 -20 -52 -25 -67 -7 -25 -6 -27 18 -25 47
5 36 -20 -40 -95 -41 -40 -77 -82 -81 -93 -7 -23 -98 -67 -107 -53 -10 17 -33
-1 -74 -56 -26 -34 -43 -49 -48 -42 -5 8 -15 3 -33 -17 -25 -28 -48 -30 -24
-1 17 20 -4 20 -25 -1 -9 -9 -27 -38 -40 -64 -26 -52 -52 -78 -40 -41 4 13 2
21 -5 21 -7 0 -9 8 -5 21 5 14 4 19 -4 15 -7 -5 -9 -1 -5 9 4 9 -4 26 -20 42
-14 14 -26 34 -26 44 0 10 -5 21 -11 24 -5 4 -9 17 -7 28 1 12 -1 27 -4 33 -4
6 9 41 28 77 19 37 33 67 30 67 -3 0 -19 -15 -36 -32 -31 -32 -31 -31 7 27 21
33 40 62 43 65 3 3 30 39 61 80 124 167 142 197 97 166 -12 -9 -26 -16 -31
-16 -12 0 17 46 51 83 l26 27 -28 0 c-15 0 -44 -9 -66 -20 -22 -11 -44 -20
-49 -20 -17 0 -135 -71 -156 -94 -11 -12 -21 -28 -23 -36 -2 -8 -11 -24 -20
-35 -54 -63 -77 -115 -52 -115 6 0 10 6 10 13 0 9 2 9 8 0 5 -8 11 -8 24 1 10
7 14 17 10 21 -4 4 0 6 8 3 8 -3 16 -19 17 -38 3 -32 2 -33 -12 -14 -14 19
-14 18 -15 -3 0 -13 5 -23 10 -23 6 0 8 -15 4 -39 -4 -27 -1 -46 11 -64 16
-25 15 -28 -33 -126 -27 -55 -52 -98 -56 -94 -3 3 -6 -7 -7 -23 -1 -28 -1 -28
-9 6 -5 19 -6 46 -3 59 5 20 3 23 -10 18 -22 -8 -32 10 -19 36 6 12 17 44 25
72 16 50 14 72 -4 45 -8 -13 -10 -13 -19 0 -16 24 -11 86 9 127 10 21 34 70
52 108 19 39 39 76 46 83 18 18 17 43 -2 36 -13 -5 -13 -2 0 24 9 16 22 35 30
42 29 24 15 29 -27 10 -48 -21 -54 -20 -38 9 12 24 8 26 -23 9 -20 -10 -21
-10 -8 5 27 33 -18 19 -49 -15 -16 -18 -30 -27 -30 -20 0 7 -5 10 -10 7 -7 -4
-9 2 -4 19 3 14 4 26 2 26 -3 0 -24 -22 -47 -50z m1724 -31 c122 -47 301 -166
346 -231 13 -18 71 -82 129 -143 58 -61 134 -154 171 -210 94 -142 144 -245
119 -245 -13 0 -169 124 -260 206 -162 146 -314 249 -362 246 -35 -3 -63 11
-105 51 -63 59 -51 9 18 -73 42 -51 83 -120 70 -120 -10 0 -62 39 -73 55 -5 6
-8 4 -8 -5 1 -34 138 -204 273 -336 309 -305 364 -361 355 -369 -9 -10 -175
108 -246 175 -15 14 -63 72 -107 130 -44 58 -88 114 -98 125 -11 11 -31 36
-45 55 -15 19 -30 37 -33 40 -17 14 -119 165 -119 175 0 7 -7 15 -15 19 -8 3
-15 10 -15 16 0 6 -9 21 -21 33 -37 40 -117 177 -124 214 -5 29 -3 40 10 49
13 10 16 21 10 53 -6 34 -3 41 14 51 14 7 21 21 21 40 0 17 3 30 8 30 4 0 43
-14 87 -31z m1414 -24 c15 8 59 -88 94 -206 52 -170 105 -460 77 -419 -7 11
-8 0 -4 -35 9 -73 -8 -47 -41 60 -14 50 -40 129 -56 177 -16 48 -29 97 -29
108 0 11 -4 20 -10 20 -5 0 -10 12 -10 26 0 14 -4 34 -10 44 -5 10 -13 51 -16
92 -4 40 -11 76 -16 79 -5 3 -6 23 -2 45 5 22 10 31 12 21 2 -9 7 -15 11 -12z
m162 -17 c41 -56 57 -90 119 -238 48 -115 140 -369 140 -385 0 -4 -9 -5 -20
-2 -11 3 -23 0 -26 -5 -9 -15 -42 41 -143 242 -84 168 -176 403 -165 421 3 5
18 9 35 9 23 0 36 -9 60 -42z m1173 2 c62 -32 86 -94 85 -220 l0 -75 -18 50
c-10 28 -39 99 -65 158 -44 104 -54 134 -38 112 4 -5 20 -17 36 -25z m-4295
-33 c-9 -7 -26 -28 -38 -47 -11 -19 -21 -31 -21 -26 0 12 41 79 54 88 18 12
22 -3 5 -15z m2458 -32 c17 -12 23 -12 27 -2 3 6 3 2 0 -10 -7 -29 3 -29 27
-2 19 22 19 22 59 -65 22 -47 40 -91 40 -96 0 -5 10 -19 23 -32 43 -43 56 -76
127 -316 11 -40 23 -85 25 -100 2 -15 6 -40 10 -57 6 -30 6 -30 -17 7 -43 68
-62 103 -85 153 l-24 50 6 -60 c3 -33 11 -83 17 -111 7 -32 7 -61 1 -79 -8
-26 -12 -22 -90 98 -45 69 -96 151 -113 183 -42 78 -124 274 -145 347 -16 56
-16 59 1 78 10 11 26 18 35 16 9 -3 23 -1 30 4 19 12 21 11 46 -6z m-188 -38
c-2 -37 3 -43 10 -12 7 29 8 29 38 -35 17 -36 37 -83 44 -105 7 -22 28 -83 47
-135 19 -52 34 -105 34 -118 -1 -13 2 -20 8 -17 6 3 10 -5 10 -19 0 -13 3 -31
6 -40 3 -9 2 -16 -2 -16 -18 0 -124 190 -149 266 -15 44 -34 90 -42 103 -20
31 -32 168 -14 157 7 -5 11 -18 10 -29z m-41 -22 c5 -19 6 -35 2 -35 -5 0 -12
9 -15 20 -3 11 -11 20 -16 20 -5 0 -9 9 -9 20 0 31 26 14 38 -25z m652 15 c2
31 29 -37 45 -115 9 -44 22 -105 30 -136 29 -111 65 -311 59 -321 -5 -7 -2 -8
6 -3 10 6 12 2 7 -16 -4 -13 -7 -33 -7 -45 0 -11 -6 -21 -13 -21 -9 0 -12 11
-10 31 2 24 1 27 -5 11 -8 -16 -11 -12 -25 30 -30 93 -96 361 -97 391 0 16 -1
72 -4 124 -2 54 0 86 4 75 6 -13 9 -15 10 -5z m636 -137 c44 -68 69 -125 79
-173 l6 -35 -21 30 c-36 51 -118 235 -105 235 2 0 21 -26 41 -57z m-2316 20
c2 -144 12 -282 23 -339 20 -92 86 -304 96 -304 4 0 17 -21 30 -47 44 -91 147
-219 299 -373 84 -85 162 -165 173 -176 20 -22 20 -22 -72 2 -114 30 -231 87
-373 182 -60 40 -110 71 -112 69 -6 -5 116 -97 209 -157 75 -48 242 -130 265
-130 2 0 0 -4 -3 -10 -3 -5 0 -10 7 -11 20 -1 -106 -37 -222 -64 -58 -13 -94
-24 -80 -25 36 -2 -172 -48 -255 -55 -38 -4 -89 -10 -113 -13 l-43 -7 38 -19
c21 -11 70 -41 110 -68 68 -45 73 -47 100 -34 15 8 39 17 53 21 23 7 22 5 -13
-34 -36 -40 -49 -63 -24 -44 6 5 30 24 52 41 44 34 109 57 89 31 -6 -8 -16
-28 -22 -45 -9 -29 -8 -31 9 -27 11 3 22 9 25 14 3 5 11 9 17 9 7 -1 1 -10
-12 -20 -13 -11 -19 -20 -14 -20 5 0 18 8 29 18 31 28 74 54 85 50 6 -2 -16
-26 -50 -53 -33 -28 -60 -53 -60 -57 -1 -14 29 -8 70 13 23 11 38 16 34 10 -3
-6 -1 -26 4 -44 6 -17 16 -52 22 -76 13 -56 19 -49 10 12 -5 26 -4 47 1 47 5
0 7 4 4 9 -10 15 83 121 106 121 6 0 8 -13 4 -35 -8 -41 -4 -42 37 -13 17 12
27 16 23 9 -7 -10 -2 -12 21 -7 29 7 31 5 51 -52 12 -33 22 -66 22 -74 0 -18
74 -126 103 -151 21 -18 20 -18 -78 -12 -147 10 -208 16 -219 22 -5 3 -6 1 -2
-5 4 -7 16 -12 28 -12 13 0 18 -5 15 -14 -4 -10 6 -13 44 -10 28 1 47 -2 44
-7 -4 -5 6 -4 21 1 20 8 29 8 34 -1 6 -8 10 -8 15 1 6 10 11 9 22 -5 7 -11 13
-13 13 -7 0 7 9 12 20 12 11 0 20 -6 20 -12 0 -9 4 -8 10 2 9 13 11 13 20 0 5
-8 10 -10 10 -4 0 7 7 15 16 18 13 5 15 2 11 -15 -4 -16 -2 -19 10 -14 9 3 20
0 25 -7 6 -10 8 -10 8 0 0 6 4 12 10 12 5 0 6 -7 3 -17 -5 -12 -3 -14 8 -7 8
4 34 10 59 11 65 4 70 5 70 17 0 6 5 5 12 -2 16 -16 31 -15 25 1 -3 9 10 18
39 26 53 16 49 26 -7 22 l-40 -3 48 49 c28 28 56 68 67 97 l18 48 25 -28 c14
-16 32 -28 40 -26 16 4 15 -9 -2 -50 -4 -11 -3 -18 4 -18 20 0 117 -77 154
-122 51 -63 89 -143 95 -197 2 -26 -3 -96 -13 -155 -37 -240 -126 -478 -280
-756 l-37 -65 42 45 c57 63 178 224 268 358 74 111 104 143 117 122 4 -6 10
-8 15 -5 15 9 22 -80 10 -126 -21 -78 -89 -239 -135 -318 -56 -98 -101 -157
-221 -294 -102 -116 -98 -116 46 -1 61 48 181 165 215 209 14 18 14 18 4 -12
-6 -18 -16 -33 -22 -33 -6 0 -7 -3 -4 -7 4 -3 -3 -11 -16 -18 -12 -6 -21 -18
-19 -26 2 -8 0 -10 -4 -6 -4 4 -13 -1 -18 -11 -19 -34 -292 -265 -404 -341
-40 -28 -99 -70 -130 -94 -113 -87 -362 -241 -507 -313 -155 -78 -194 -81
-340 -24 -135 52 -159 74 -249 225 -38 63 -88 137 -110 164 -23 28 -76 93
-118 145 -98 119 -279 389 -382 569 -92 162 -162 324 -176 410 -17 109 -25
424 -11 451 12 21 8 33 -28 106 -41 82 -49 114 -33 124 27 16 122 -150 99
-173 -16 -16 0 -26 18 -11 20 16 20 1 0 -47 -19 -45 -19 -56 0 -22 15 27 56
47 52 25 -1 -6 7 -10 18 -9 10 1 27 -3 37 -8 13 -7 18 -6 18 2 0 9 3 9 14 0
10 -9 16 -9 21 -1 5 8 11 8 21 -1 11 -9 14 -8 14 7 1 18 2 18 13 2 12 -15 14
-14 24 12 l11 28 -78 0 c-133 -1 -187 47 -197 177 -5 55 -3 64 22 93 15 18 34
31 41 28 7 -3 16 -1 19 4 4 6 14 10 24 10 13 0 18 -8 19 -31 1 -37 5 -42 34
-44 17 -1 24 -10 29 -33 7 -36 69 -123 104 -146 13 -9 39 -16 57 -17 l33 0
-42 -19 c-24 -11 -43 -26 -43 -34 0 -24 17 -28 23 -5 4 15 11 19 25 14 11 -3
23 -1 27 5 3 5 16 10 28 10 13 0 33 7 45 16 12 8 22 12 22 8 0 -4 14 7 30 24
26 27 30 39 30 86 0 30 -4 66 -10 81 -14 37 4 22 24 -19 9 -19 16 -56 16 -83
1 -45 2 -47 16 -28 12 15 14 33 9 75 -5 47 -12 61 -48 98 -45 46 -137 97 -193
108 -36 7 -49 28 -36 63 7 21 8 21 79 -13 96 -46 178 -108 180 -135 1 -11 17
-42 35 -67 l33 -46 -1 -142 c-1 -153 -32 -346 -79 -494 -13 -42 -23 -78 -21
-80 8 -8 57 151 75 243 32 167 43 286 39 416 -4 123 -18 179 -43 179 -12 0
-85 74 -85 85 0 12 39 -16 60 -42 12 -16 18 -21 14 -13 -17 35 -90 148 -117
182 -33 42 -29 58 16 59 25 0 20 3 -23 13 -63 14 -87 26 -114 55 -16 18 -18
30 -12 88 15 150 57 315 126 492 66 171 183 431 194 431 3 0 1 -11 -4 -25 -5
-13 -9 -53 -9 -87 0 -39 -10 -95 -26 -147 -48 -159 -68 -338 -69 -616 -1 -262
3 -296 45 -349 11 -15 30 -31 41 -37 18 -10 18 -8 -4 21 -22 30 -23 39 -22
198 1 152 4 182 38 342 20 96 47 211 61 255 13 44 35 121 49 170 14 50 39 130
56 179 17 48 42 134 56 190 54 216 113 376 114 309z m-1450 -102 c-12 -24 -30
-36 -30 -21 0 13 22 39 33 40 4 0 3 -9 -3 -19z m1150 -266 c-6 -15 -13 -25
-16 -23 -2 3 1 17 7 32 16 34 23 27 9 -9z m1031 -60 c20 -4 51 -20 68 -36 18
-16 36 -29 42 -29 5 0 9 -4 9 -9 0 -5 6 -16 13 -23 32 -32 125 -156 139 -183
8 -16 23 -43 32 -60 19 -36 21 -65 3 -65 -16 0 -151 108 -249 200 -49 45 -84
88 -98 118 -12 26 -26 55 -31 65 -12 23 -2 39 19 33 10 -3 33 -8 53 -11z
m1463 -11 c4 -11 2 -12 -14 -1 -11 6 -20 15 -20 19 0 12 28 -3 34 -18z m-3477
-36 c-3 -8 -6 -5 -6 6 -1 11 2 17 5 13 3 -3 4 -12 1 -19z m3501 -23 c-3 -3 -9
2 -12 12 -6 14 -5 15 5 6 7 -7 10 -15 7 -18z m1116 -190 c46 -156 107 -490 75
-415 -6 14 -13 42 -15 62 -3 20 -11 54 -19 75 l-15 38 5 -50 c8 -77 -10 -33
-29 70 -59 323 -60 414 -2 220z m-4304 -625 c-16 -31 -23 -18 -8 15 7 15 14
23 16 17 2 -6 -2 -21 -8 -32z m1669 -11 c22 -11 45 -27 52 -35 10 -12 6 -14
-25 -14 -36 0 -247 -27 -421 -54 -108 -17 -258 -29 -205 -16 19 4 98 20 175
34 108 19 270 64 382 105 1 1 20 -8 42 -20z m-252 -25 c-3 -3 -12 -4 -19 -1
-8 3 -5 6 6 6 11 1 17 -2 13 -5z m2313 -16 c25 -13 51 -34 57 -48 13 -25 18
-100 8 -100 -14 0 -62 30 -81 52 -20 21 -64 99 -64 113 0 12 39 4 80 -17z
m-2357 5 c-7 -2 -19 -2 -25 0 -7 3 -2 5 12 5 14 0 19 -2 13 -5z m-50 -10 c-7
-2 -19 -2 -25 0 -7 3 -2 5 12 5 14 0 19 -2 13 -5z m-46 -9 c-3 -3 -12 -4 -19
-1 -8 3 -5 6 6 6 11 1 17 -2 13 -5z m2302 -20 c26 -33 27 -54 4 -54 -10 0 -36
-7 -58 -15 -64 -23 -68 -20 -40 34 34 68 60 78 94 35z m-1821 -10 c18 -8 32
-17 32 -20 0 -2 -24 -4 -52 -3 -43 1 -48 3 -28 10 20 6 16 7 -15 4 -22 -3 -98
-10 -170 -15 -71 -6 -156 -15 -189 -21 -62 -11 -90 -6 -34 6 43 10 354 52 394
54 17 0 45 -6 62 -15z m-1768 -4 c12 -8 11 -10 -7 -10 -13 0 -23 5 -23 10 0
13 11 13 30 0z m7 -36 c-3 -3 -12 -4 -19 -1 -8 3 -5 6 6 6 11 1 17 -2 13 -5z
m1708 -5 c-60 -5 -155 -16 -210 -25 -158 -25 -164 -25 -95 -4 91 28 167 38
300 37 l115 0 -110 -8z m-679 -6 c-9 -9 -116 -12 -111 -3 3 5 30 8 60 8 31 0
54 -3 51 -5z m-1058 -20 c-10 -2 -18 -11 -18 -19 0 -8 -4 -14 -10 -14 -12 0
-12 3 -4 24 3 9 16 15 28 15 16 -1 17 -2 4 -6z m1902 -24 c9 -5 -43 -9 -126
-9 -78 0 -163 -3 -190 -6 -39 -4 -45 -3 -31 6 36 23 310 30 347 9z m-1915 -39
c3 -5 -3 -10 -14 -10 -12 0 -21 5 -21 10 0 6 6 10 14 10 8 0 18 -4 21 -10z
m3715 -19 c28 -14 37 -26 43 -57 21 -95 25 -103 26 -46 1 28 3 52 6 52 3 0 23
-9 45 -20 76 -39 70 -72 -53 -332 -81 -169 -127 -238 -236 -352 -86 -89 -115
-109 -210 -145 -50 -19 -51 -19 -51 0 0 27 37 190 51 225 6 16 12 43 14 59 1
17 7 64 13 105 6 41 14 100 17 131 5 49 9 56 28 55 24 -1 87 -77 87 -105 0
-22 -52 -98 -88 -128 -15 -13 -22 -23 -17 -23 16 0 80 70 100 109 11 23 15 47
12 73 -5 34 -18 61 -81 159 -12 19 -16 38 -12 54 6 22 9 24 28 14 16 -9 22 -8
29 2 13 20 11 49 -3 49 -6 0 -4 7 5 18 10 10 15 21 12 24 -3 3 17 29 44 58
l49 52 54 -7 c29 -4 69 -15 88 -24z m-2280 4 c-7 -8 -17 -15 -22 -15 -6 0 -5
7 2 15 7 8 17 15 22 15 6 0 5 -7 -2 -15z m-1223 -43 c21 -28 15 -32 -24 -16
-23 10 -69 16 -123 16 -90 1 -124 -7 -99 -23 10 -6 8 -9 -8 -9 -22 0 -32 27
-16 43 3 4 63 7 132 6 104 0 127 -3 138 -17z m228 8 c3 -5 2 -10 -4 -10 -5 0
-13 5 -16 10 -3 6 -2 10 4 10 5 0 13 -4 16 -10z m1525 -9 c0 -19 -22 -23 -38
-7 -15 15 -14 16 11 16 15 0 27 -4 27 -9z m-150 -27 c0 -10 -12 -14 -37 -14
l-38 0 24 19 c26 20 51 18 51 -5z m-1289 -21 c13 -16 12 -17 -3 -4 -10 7 -18
15 -18 17 0 8 8 3 21 -13z m-322 -1 c79 -12 56 -27 -42 -27 -84 -1 -98 -4
-162 -35 -39 -19 -74 -36 -79 -38 -11 -6 2 70 15 82 16 17 195 29 268 18z
m1616 -21 c0 -19 -53 -37 -67 -23 -17 17 11 44 41 40 14 -2 26 -9 26 -17z
m-1477 -93 c-8 -23 -35 -33 -52 -19 -9 7 -13 17 -10 22 8 14 66 11 62 -3z
m1752 -39 c0 -54 -13 -75 -62 -99 -32 -16 -61 -20 -132 -19 -50 0 -99 3 -109
5 -22 7 -47 55 -47 91 l0 28 18 -30 c22 -36 52 -63 52 -46 0 6 13 11 29 11 16
0 48 7 71 15 23 8 46 12 52 9 19 -12 56 7 79 41 32 47 49 45 49 -6z m2374 25
c3 -8 2 -12 -4 -9 -6 3 -10 10 -10 16 0 14 7 11 14 -7z m-3950 -110 c24 -9 19
-52 -10 -81 -24 -24 -30 -25 -92 -20 -37 3 -74 8 -84 12 -24 9 -44 63 -29 78
8 8 11 5 11 -11 0 -25 40 -46 69 -37 9 2 20 4 24 4 5 -1 21 10 35 24 15 13 34
27 42 30 8 3 16 6 17 6 1 1 8 -2 17 -5z m1374 -51 c-10 -2 -28 -2 -40 0 -13 2
-5 4 17 4 22 1 32 -1 23 -4z m77 -3 c-3 -5 -18 -10 -33 -10 -21 0 -24 2 -12
10 20 13 53 13 45 0z m1211 -243 c35 -104 54 -190 54 -252 0 -62 -12 -77 -91
-119 l-50 -26 2 123 c1 119 15 253 18 180 1 -23 8 -36 24 -44 21 -11 21 -11 6
7 -24 27 -30 99 -13 146 9 28 11 45 4 58 -6 10 -10 24 -10 32 0 25 32 -34 56
-105z m-402 -237 c15 -100 20 -130 46 -280 6 -36 23 -102 37 -148 14 -45 23
-85 21 -87 -12 -12 -79 245 -98 375 -12 80 -25 168 -29 196 -4 27 -5 57 -2 65
4 12 5 12 7 -1 2 -8 10 -62 18 -120z m493 68 c-3 -8 -6 -5 -6 6 -1 11 2 17 5
13 3 -3 4 -12 1 -19z m-366 -198 c16 -116 19 -167 8 -149 -5 8 -9 24 -9 35 0
12 -7 39 -16 60 -9 22 -18 73 -19 114 -3 68 -2 73 10 50 7 -14 19 -64 26 -110z
m128 -130 c11 -47 22 -94 25 -105 4 -11 0 -6 -8 10 -8 17 -21 57 -30 90 -27
110 -56 245 -55 257 1 15 39 -126 68 -252z m241 208 c0 -5 -4 -8 -10 -8 -5 0
-10 10 -10 23 0 18 2 19 10 7 5 -8 10 -18 10 -22z m404 -29 c8 -42 7 -119 -3
-144 -9 -23 -21 48 -21 126 0 55 14 65 24 18z m-851 -71 c26 -95 58 -240 53
-245 -4 -4 -8 10 -46 172 -11 50 -23 98 -26 108 -3 9 -3 17 0 17 2 0 11 -24
19 -52z m64 -280 c-3 -8 -6 -5 -6 6 -1 11 2 17 5 13 3 -3 4 -12 1 -19z m1379
-1271 c4 -13 -1 -24 -18 -35 -12 -9 -39 -31 -59 -49 -20 -18 -41 -33 -46 -33
-14 0 -43 119 -32 126 5 3 9 0 9 -6 0 -6 4 -8 10 -5 5 3 19 1 30 -5 15 -8 25
-8 34 -1 7 6 16 8 19 4 11 -10 8 23 -4 54 l-10 28 30 -29 c17 -16 34 -38 37
-49z m-252 -142 c50 -97 52 -105 33 -105 -7 0 -32 39 -55 86 -23 47 -38 83
-32 79 15 -9 12 8 -5 31 -8 10 -15 23 -15 29 0 16 24 -24 74 -120z m26 10 c0
-5 -5 -3 -10 5 -5 8 -10 20 -10 25 0 6 5 3 10 -5 5 -8 10 -19 10 -25z m-3153
-170 c-2 -20 -48 143 -46 167 0 7 11 -23 25 -67 13 -44 23 -89 21 -100z m3083
125 c6 -11 8 -20 6 -20 -3 0 -10 9 -16 20 -6 11 -8 20 -6 20 3 0 10 -9 16 -20z
m38 -66 c-4 -3 -12 5 -18 18 -12 22 -12 22 6 6 10 -10 15 -20 12 -24z m-394
-191 l5 -88 -14 85 c-7 47 -13 99 -13 115 l0 30 8 -27 c4 -15 11 -67 14 -115z"/>
<path d="M2642 4750 c0 -14 4 -36 8 -50 6 -20 8 -21 8 -5 0 11 -4 34 -8 50 -7
27 -8 27 -8 5z"/>
<path d="M2660 4659 c0 -14 49 -117 59 -123 4 -3 5 8 3 25 -2 16 -8 29 -12 29
-4 0 -15 18 -24 40 -15 39 -26 51 -26 29z"/>
<path d="M1760 3626 c0 -2 14 -14 30 -26 17 -12 30 -19 30 -16 0 2 -13 14 -30
26 -16 12 -30 19 -30 16z"/>
<path d="M1975 3510 c27 -12 43 -12 25 0 -8 5 -22 9 -30 9 -10 0 -8 -3 5 -9z"/>
<path d="M1665 3380 c-14 -7 -8 -8 20 -3 22 3 42 7 44 9 9 8 -45 2 -64 -6z"/>
<path d="M811 2684 c0 -11 3 -14 6 -6 3 7 2 16 -1 19 -3 4 -6 -2 -5 -13z"/>
<path d="M1041 2120 c-6 -28 -11 -71 -11 -95 0 -42 3 -47 53 -83 49 -37 107
-59 107 -41 0 5 -24 22 -52 38 -106 59 -112 72 -87 180 5 24 8 46 5 48 -2 2
-9 -19 -15 -47z"/>
<path d="M1305 1960 c3 -5 10 -10 16 -10 5 0 9 5 9 10 0 6 -7 10 -16 10 -8 0
-12 -4 -9 -10z"/>
<path d="M1278 1523 c-19 -22 -61 -104 -56 -109 3 -2 20 1 39 7 19 6 65 10
102 10 41 0 83 6 105 15 62 27 159 35 227 18 91 -21 201 -16 163 7 -7 5 -24 9
-38 9 -14 0 -63 14 -110 30 -110 39 -190 41 -260 5 -27 -14 -58 -25 -68 -25
-10 0 -29 11 -42 25 -28 30 -41 31 -62 8z"/>
<path d="M1460 1280 c0 -18 64 -50 100 -50 l35 0 -25 24 c-26 25 -110 45 -110
26z"/>
<path d="M4860 3895 c0 -5 5 -17 10 -25 5 -8 10 -10 10 -5 0 6 -5 17 -10 25
-5 8 -10 11 -10 5z"/>
<path d="M4590 5110 c0 -10 69 -110 76 -110 2 0 -11 27 -29 60 -30 55 -47 74
-47 50z"/>
<path d="M705 5080 c-3 -5 -1 -10 4 -10 6 0 11 5 11 10 0 6 -2 10 -4 10 -3 0
-8 -4 -11 -10z"/>
<path d="M933 4807 c-24 -35 -38 -67 -30 -67 6 0 67 88 67 96 0 13 -18 0 -37
-29z"/>
<path d="M337 4677 c-4 -10 -7 -28 -6 -40 0 -21 1 -21 10 2 5 14 8 32 7 40 -3
13 -5 13 -11 -2z"/>
<path d="M287 4573 c-11 -10 -8 -43 3 -43 6 0 10 4 10 9 0 5 3 16 6 25 6 16
-7 22 -19 9z"/>
<path d="M280 4475 c-7 -14 -10 -28 -7 -32 4 -3 7 2 7 13 0 16 2 17 10 4 8
-12 10 -9 10 13 0 33 -3 34 -20 2z"/>
<path d="M1315 104 c-11 -9 -29 -22 -39 -30 -11 -7 -18 -15 -15 -18 2 -2 22
11 44 30 40 34 47 47 10 18z"/>
<path d="M3839 83 c-13 -17 -13 -17 6 -3 11 8 22 16 24 17 2 2 0 3 -6 3 -6 0
-17 -8 -24 -17z"/>
</g>
</svg>
